<?xml version="1.0" encoding="UTF-8"?>
<!-- Generated by Pixelmator Pro 3.7 -->
<svg width="256" height="256" viewBox="0 0 256 256" xmlns="http://www.w3.org/2000/svg">
    <g id="Group">
        <path id="Path" fill="#d4332b" stroke="none" d="M 176.365631 254.306595 L 79.350372 254.306595 C 36.371422 254.306595 1.406593 219.341766 1.406593 176.365631 L 1.406593 79.350372 C 1.406593 36.371429 36.371422 1.406601 79.350372 1.406601 L 176.365631 1.406601 C 219.341766 1.406601 254.306595 36.371429 254.306595 79.350372 L 254.306595 176.365631 C 254.306595 219.341766 219.341766 254.306595 176.365631 254.306595 Z M 79.350372 21.076599 C 47.218021 21.076599 21.076593 47.218018 21.076593 79.350372 L 21.076593 176.365631 C 21.076593 208.495163 47.218021 234.636597 79.350372 234.636597 L 176.365631 234.636597 C 208.495163 234.636597 234.636597 208.495163 234.636597 176.365631 L 234.636597 79.350372 C 234.636597 47.218018 208.495163 21.076599 176.365631 21.076599 L 79.350372 21.076599 Z"/>
        <path id="path1" fill="#d4332b" stroke="none" d="M 128.573151 199.427292 C 89.502899 199.427292 57.718994 167.640579 57.718994 128.573151 C 57.718994 89.505707 89.505714 57.718994 128.573151 57.718994 C 167.640579 57.718994 199.427292 89.505707 199.427292 128.573151 C 199.427292 167.640579 167.643387 199.427292 128.573151 199.427292 Z M 128.573151 77.388992 C 100.349503 77.388992 77.388992 100.349503 77.388992 128.573151 C 77.388992 156.796783 100.349503 179.757294 128.573151 179.757294 C 156.796783 179.757294 179.757294 156.796783 179.757294 128.573151 C 179.760101 100.349503 156.799591 77.388992 128.573151 77.388992 Z"/>
        <path id="path2" fill="#d4332b" stroke="none" d="M 213.432343 57.429565 C 213.432343 65.029312 207.271515 71.19014 199.671768 71.19014 C 192.072006 71.19014 185.911209 65.029312 185.911209 57.429565 C 185.911209 49.829819 192.072006 43.668991 199.671768 43.668991 C 207.271515 43.668991 213.432343 49.829819 213.432343 57.429565 Z"/>
    </g>
</svg>
