<?xml version="1.0" encoding="UTF-8"?>
<!-- Generated by Pixelmator Pro 3.7 -->
<svg width="1080" height="1080" viewBox="0 0 1080 1080" xmlns="http://www.w3.org/2000/svg">
    <g id="50adb38f-e42b-424a-a24f-e94c8a15198e"/>
    <g id="890f2e4c-42f1-4758-bd54-f4f86eb1cb71"/>
    <g id="54a07ab2-a06d-4088-bba8-442ef9b96607">
        <path id="Path" fill="#d4332b" stroke="none" d="M 1046.217041 285.68811 C 1034.066162 240.230835 998.259094 204.423828 952.80188 192.272949 C 870.410522 170.190002 540 170.190002 540 170.190002 C 540 170.190002 209.589447 170.190002 127.19812 192.272949 C 81.740845 204.423828 45.933838 240.230835 33.78294 285.68811 C 11.7 368.079468 11.7 540 11.7 540 C 11.7 540 11.7 711.920532 33.78294 794.31189 C 45.933838 839.769104 81.740845 875.576172 127.19812 887.727112 C 209.589447 909.809998 540 909.809998 540 909.809998 C 540 909.809998 870.410522 909.809998 952.80188 887.727112 C 998.259094 875.576172 1034.066162 839.769104 1046.217041 794.31189 C 1068.300049 711.920532 1068.300049 540 1068.300049 540 C 1068.300049 540 1068.300049 368.079468 1046.217041 285.68811 Z M 434.339996 698.48999 L 434.339996 381.51001 L 708.844666 540 L 434.339996 698.48999 Z"/>
    </g>
</svg>
