<?xml version="1.0" encoding="UTF-8" standalone="no" ?>
<!DOCTYPE svg PUBLIC "-//W3C//DTD SVG 1.1//EN" "http://www.w3.org/Graphics/SVG/1.1/DTD/svg11.dtd">
<svg xmlns="http://www.w3.org/2000/svg" xmlns:xlink="http://www.w3.org/1999/xlink" version="1.1" width="1080" height="1080" viewBox="0 0 1080 1080" xml:space="preserve">
<desc>Created with Fabric.js 5.2.4</desc>
<defs>
</defs>
<g transform="matrix(1 0 0 1 540 540)" id="50adb38f-e42b-424a-a24f-e94c8a15198e"  >
<rect style="stroke: none; stroke-width: 1; stroke-dasharray: none; stroke-linecap: butt; stroke-dashoffset: 0; stroke-linejoin: miter; stroke-miterlimit: 4; fill: rgb(255,255,255); fill-rule: nonzero; opacity: 1; visibility: hidden;" vector-effect="non-scaling-stroke"  x="-540" y="-540" rx="0" ry="0" width="1080" height="1080" />
</g>
<g transform="matrix(1 0 0 1 540 540)" id="890f2e4c-42f1-4758-bd54-f4f86eb1cb71"  >
</g>
<g transform="matrix(11.74 0 0 11.74 540 540)" id="54a07ab2-a06d-4088-bba8-442ef9b96607"  >
<path style="stroke: rgb(211,29,50); stroke-width: 0; stroke-dasharray: none; stroke-linecap: butt; stroke-dashoffset: 0; stroke-linejoin: miter; stroke-miterlimit: 4; fill: rgb(211,29,50); fill-rule: nonzero; opacity: 1;" vector-effect="non-scaling-stroke"  transform=" translate(-45, -45)" d="M 88.119 23.338 C 87.084 19.466 84.034 16.416 80.162 15.381 C 73.144 13.5 45 13.5 45 13.5 C 45 13.5 16.856 13.5 9.838000000000001 15.381 C 5.966000000000001 16.416 2.9160000000000013 19.466 1.8810000000000011 23.338 C 0 30.356 0 45 0 45 C 0 45 0 59.644 1.881 66.662 C 2.916 70.534 5.966 73.584 9.838 74.619 C 16.856 76.5 45 76.5 45 76.5 C 45 76.5 73.144 76.5 80.162 74.619 C 84.034 73.584 87.084 70.534 88.119 66.662 C 90 59.644 90 45 90 45 C 90 45 90 30.356 88.119 23.338 z M 36 58.5 L 36 31.5 L 59.382 45 L 36 58.5 z" stroke-linecap="round" />
</g>
<g transform="matrix(NaN NaN NaN NaN 0 0)"  >
<g style=""   >
</g>
</g>
<g transform="matrix(NaN NaN NaN NaN 0 0)"  >
<g style=""   >
</g>
</g>
<g transform="matrix(NaN NaN NaN NaN 0 0)"  >
<g style=""   >
</g>
</g>
<g transform="matrix(NaN NaN NaN NaN 0 0)"  >
<g style=""   >
</g>
</g>
</svg>